<?xml version="1.0" standalone="no"?>
<!DOCTYPE svg PUBLIC "-//W3C//DTD SVG 1.1//EN" "http://www.w3.org/Graphics/SVG/1.1/DTD/svg11.dtd">
<svg id="" viewBox="0 0 80 80" version="1.1"
	xmlns="http://www.w3.org/2000/svg" xmlns:xlink="http://www.w3.org/1999/xlink" xml:space="preserve"
	x="0px" y="0px" width="80px" height="80px">
	<g id="Layer%201">
		<path id="Shape%207" d="M 78.7443 58.0371 L 44.0479 58.0371 C 43.3676 58.0371 42.8156 57.4791 42.8156 56.7911 L 42.8156 52.863 C 42.8156 52.1345 42.8156 50.1992 51.155 47.1281 C 55.6273 45.48 56.3493 44.32 56.3493 42.1803 C 56.3493 41.8265 56.3156 41.7894 56.0011 41.4283 C 55.5149 40.871 54.7849 40.0333 54.3853 37.9357 C 53.3871 37.4108 52.7951 36.6467 52.6393 34.5475 C 52.6378 33.6237 52.8817 32.9384 53.2107 32.4661 C 53.0968 31.7791 52.9251 30.6638 52.8369 29.7108 C 52.7148 28.412 53.1177 26.2838 54.6596 24.569 C 55.7283 23.3799 57.7664 21.962 61.396 21.962 C 65.0227 21.962 67.059 23.3774 68.1277 24.564 C 69.6714 26.2772 70.0773 28.408 69.957 29.7116 C 69.8672 30.6615 69.6938 31.7701 69.5799 32.4573 C 69.9106 32.9203 70.1577 33.5829 70.1577 34.4543 C 69.9924 36.7133 69.3665 37.4587 68.4085 37.9349 C 67.9977 40.0446 67.274 40.8743 66.7926 41.4276 C 66.4781 41.7885 66.4444 41.8265 66.4444 42.1803 C 66.4444 44.32 67.1666 45.48 71.6372 47.1281 C 79.9767 50.1992 79.9767 52.1345 79.9767 52.863 L 79.9767 56.7911 C 79.9767 57.4791 79.4246 58.0371 78.7443 58.0371 ZM 77.5119 52.863 C 77.3723 52.661 75.8382 51.3275 70.7931 49.4691 C 66.3737 47.8405 63.9796 46.197 63.9796 42.1803 C 63.9796 40.8848 64.514 40.2725 64.9424 39.7802 C 65.3292 39.3381 65.7271 38.8806 65.9983 37.4012 C 66.2117 36.2388 66.9482 35.8803 67.303 35.7073 C 67.4313 35.6434 67.6175 35.4105 67.696 34.3601 C 67.6929 34.1159 67.627 33.9853 67.5998 33.9407 C 67.1761 33.6724 66.9499 33.1662 67.043 32.6592 C 67.0461 32.6413 67.3751 30.8348 67.502 29.4772 C 67.558 28.881 67.3798 27.434 66.3047 26.2416 C 65.2362 25.0555 63.5849 24.4538 61.396 24.4538 C 59.2057 24.4538 57.553 25.0564 56.4842 26.2448 C 55.4107 27.4379 55.2341 28.881 55.2919 29.4772 C 55.4155 30.8365 55.7428 32.6421 55.7461 32.6601 C 55.8391 33.1646 55.6145 33.6682 55.1956 33.9375 C 55.1667 33.9846 55.101 34.1313 55.101 34.4543 C 55.1748 35.4105 55.361 35.6434 55.3626 35.6458 C 55.8439 35.8803 56.5805 36.2388 56.7939 37.4012 C 57.0651 38.8806 57.4647 39.3373 57.8497 39.7792 C 58.2799 40.2717 58.8141 40.8848 58.8141 42.1803 C 58.8141 46.197 56.4183 47.8411 51.9992 49.4691 C 46.9541 51.3275 45.42 52.661 45.2547 53.0179 L 45.2722 55.5453 L 77.5119 55.5453 L 77.5119 52.863 ZM 44.0512 35.3578 C 43.82 35.5947 43.5041 35.7278 43.1751 35.7278 C 42.8462 35.7278 42.5316 35.5947 42.2989 35.3588 C 37.6036 30.5648 31.3631 27.9255 24.726 27.9255 C 18.0892 27.9255 11.8502 30.5648 7.1564 35.3588 C 6.6944 35.8308 5.8695 35.8308 5.4041 35.3588 L 2.3281 32.2195 C 1.853 31.7338 1.853 30.9518 2.3281 30.4659 C 8.3119 24.3563 16.2663 20.9926 24.7277 20.9926 C 33.1891 20.9926 41.1434 24.3572 47.1242 30.4668 C 47.5992 30.9518 47.5992 31.7338 47.1242 32.2188 L 44.0512 35.3578 ZM 24.7277 23.4844 C 17.335 23.4844 10.361 26.2715 4.9565 31.3604 L 6.2997 32.7307 C 11.3448 28.0155 17.8404 25.4337 24.726 25.4337 C 31.6118 25.4337 38.1075 28.0155 43.1559 32.7307 L 44.4973 31.3604 C 39.0927 26.2715 32.1204 23.4844 24.7277 23.4844 ZM 24.726 29.8729 C 30.864 29.8729 36.6344 32.3137 40.9734 36.7464 C 41.4485 37.2316 41.4485 38.0126 40.9734 38.4985 L 37.9037 41.6376 C 37.6726 41.8746 37.3566 42.0075 37.0276 42.0075 C 36.6986 42.0075 36.3841 41.8746 36.1514 41.6385 C 33.0977 38.5222 29.041 36.8058 24.726 36.8058 C 20.4127 36.8058 16.3562 38.5222 13.3056 41.6385 C 12.8435 42.1104 12.0187 42.1104 11.5533 41.6385 L 8.4787 38.4993 C 8.0038 38.0134 8.0038 37.2316 8.4787 36.7464 C 12.8178 32.3137 18.5882 29.8729 24.726 29.8729 ZM 12.4583 39.0201 C 15.8538 35.976 20.1656 34.314 24.726 34.314 C 29.2882 34.314 33.5999 35.976 36.9987 39.0193 L 38.3385 37.6486 C 34.5837 34.232 29.7952 32.3647 24.726 32.3647 C 19.657 32.3647 14.8686 34.232 11.1137 37.6476 L 12.4583 39.0201 ZM 24.726 38.7549 C 28.542 38.7549 32.1301 40.27 34.8275 43.0231 C 35.3026 43.5081 35.3026 44.2901 34.8275 44.7759 L 31.7563 47.9167 C 31.5251 48.1534 31.2089 48.2864 30.88 48.2864 C 30.5511 48.2864 30.235 48.1534 30.0038 47.9174 C 28.5949 46.4785 26.7224 45.686 24.7293 45.686 C 22.7379 45.686 20.8635 46.4785 19.4563 47.9167 C 18.9943 48.3903 18.1661 48.3903 17.704 47.9167 L 14.6295 44.7759 C 14.1544 44.2908 14.1544 43.5089 14.6295 43.0237 C 17.3253 40.2709 20.9102 38.7549 24.726 38.7549 ZM 18.6347 45.3242 C 22.1009 42.5615 27.3561 42.5615 30.8254 45.3242 L 32.1749 43.9453 C 30.0744 42.1965 27.4716 41.2467 24.726 41.2467 C 21.9821 41.2467 19.3809 42.1965 17.2835 43.9445 L 18.6347 45.3242 ZM 24.7277 47.6343 C 27.8055 47.6343 30.3087 50.1854 30.3087 53.3204 C 30.3087 56.4563 27.8055 59.0072 24.7277 59.0072 C 21.65 59.0072 19.145 56.4563 19.145 53.3204 C 19.145 50.1854 21.65 47.6343 24.7277 47.6343 ZM 24.7277 56.5154 C 26.4463 56.5154 27.844 55.0822 27.844 53.3204 C 27.844 51.5594 26.4463 50.1261 24.7277 50.1261 C 23.0091 50.1261 21.6097 51.5594 21.6097 53.3204 C 21.6097 55.0822 23.0091 56.5154 24.7277 56.5154 Z" fill="#ffffff"/>
	</g>
</svg>
