<?xml version="1.0" encoding="UTF-8" standalone="no"?>
<svg width="128px" height="128px" viewBox="0 0 128 128" version="1.1" xmlns="http://www.w3.org/2000/svg" xmlns:xlink="http://www.w3.org/1999/xlink">
    <!-- Generator: Sketch 39.1 (31720) - http://www.bohemiancoding.com/sketch -->
    <title>logo-icon</title>
    <desc>Created with Sketch.</desc>
    <defs></defs>
    <g id="Page-1" stroke="none" stroke-width="1" fill="none" fill-rule="evenodd">
        <path d="M73.9911564,107.53657 C70.7662565,108.254438 67.4070042,108.627783 63.9067485,108.627783 C59.3733542,108.627783 55.0514652,108.025643 50.9769972,106.833333 L50.9769972,109.491088 L50.8333333,126.543018 C55.0341723,127.41253 59.3857696,127.871008 63.8460017,127.871008 C79.4064874,127.871008 93.6646864,122.309854 104.755185,113.07378 L73.9712031,107.64609 L73.9911564,107.53657" id="Fill-31" fill="#AE70A1"></path>
        <path d="M95.5796229,95.5644591 C91.6155633,99.5333549 87.2413522,102.590615 82.5,104.761514 L108.923073,109.4199 C118.079873,100.358527 124.500408,88.5498316 126.875297,75.3333333 L99.4576614,91.1645761 C98.2764249,92.6801259 96.9901009,94.1517787 95.5796229,95.5644591" id="Fill-32" fill="#E1759E"></path>
        <path d="M108.637486,63.8730491 C108.637486,70.8805822 107.177347,77.3422868 104.333333,83.2244643 L127.597131,69.7915856 C127.776711,67.8419448 127.880468,65.8701339 127.880468,63.8739359 C127.880468,52.3326123 124.807657,41.5149215 119.461054,32.1666667 L108.594919,62.0187398 C108.617533,62.6337391 108.637486,63.2496252 108.637486,63.8730491" id="Fill-33" fill="#EFBDC6"></path>
        <path d="M107.199737,52.9152768 L116.403095,27.6293625 C108.989772,16.9273998 98.4060875,8.59276307 86,4 L96.9016072,33.9491783 C102.031384,39.5400404 105.470893,45.888234 107.199737,52.9152768" id="Fill-34" fill="#F8DC7A"></path>
        <path d="M90.1468086,27.7055617 L80.8955627,2.29150411 C75.4926471,0.808322754 69.8077246,0 63.9339106,0 C56.3512057,0 49.0819895,1.32799048 42.3333333,3.74808131 L68.559977,19.4808887 C76.5497297,20.2404372 83.7750485,22.9935233 90.1468086,27.7055617" id="Fill-35" fill="#F5C039"></path>
        <path d="M59.8921597,19.4307143 L37.2247449,5.83333333 C25.2625079,11.319109 15.2889518,20.3809259 8.66666667,31.6570948 L39.8931689,26.1518094 C45.8991181,22.2773584 52.587471,20.0231001 59.8921597,19.4307143" id="Fill-36" fill="#EA9292"></path>
        <path d="M32.4831179,32.1818477 C32.6059417,32.062129 32.7323127,31.9512784 32.8560233,31.8333333 L6.18242531,36.5365036 C2.22191302,44.8560647 0,54.1644133 0,63.9910995 C0,67.6482833 0.323687189,71.2283151 0.912088422,74.7161191 L21.0928761,50.664194 C23.1622571,43.7927855 26.9613692,37.6051036 32.4831179,32.1818477" id="Fill-37" fill="#9DBCD9"></path>
        <path d="M19.1864595,63.6165488 C19.1864595,62.2216045 19.2476497,60.8488304 19.3664828,59.5 L2,80.198472 C4.96595015,91.6107655 11.0113627,101.776211 19.1864595,109.774749 L19.1864595,63.6165488" id="Fill-38" fill="#436CA6"></path>
        <path d="M50.8950839,50.8881602 C54.5518624,47.2398444 58.7943816,45.4666778 63.8629682,45.4666778 C68.9976225,45.4666778 73.253444,47.2318632 76.8743064,50.859339 C80.4969425,54.4885885 82.2603725,58.7244125 82.2603725,63.8075788 C82.2603725,68.9616894 80.4969425,73.2352027 76.8734196,76.8675559 C73.253444,80.4959186 68.9971791,82.2597737 63.8629682,82.2597737 C58.7895041,82.2597737 54.5452112,80.4937016 50.8857724,76.8613483 C47.2378621,73.2418537 45.4682243,68.9913974 45.4682243,63.8621173 C45.4682243,58.7709698 47.2436264,54.5276079 50.8950839,50.8881602 L50.8950839,50.8881602 Z M63.925932,103.058898 C74.6745637,103.058898 83.9825658,99.1933151 91.594979,91.569896 C99.2025147,83.9424862 103.0606,74.6221657 103.0606,63.8621173 C103.0606,53.0976348 99.1945334,43.7759841 91.571035,36.152565 C83.9488668,28.5322496 74.628006,24.6666667 63.8629682,24.6666667 C53.19548,24.6666667 43.9069879,28.4799281 36.2533378,35.9995911 C28.565102,43.5494054 24.6666667,52.7748378 24.6666667,63.4187148 L24.6666667,116.717025 C30.853526,121.313779 37.8801985,124.834838 45.4682243,127.040766 L45.4682243,98.5667874 C50.9562741,101.551773 57.1289445,103.058898 63.925932,103.058898 L63.925932,103.058898 Z" id="Fill-39" fill="#FFFFFF"></path>
    </g>
</svg>