<?xml version="1.0" standalone="no"?>
<!DOCTYPE svg PUBLIC "-//W3C//DTD SVG 1.1//EN" "http://www.w3.org/Graphics/SVG/1.1/DTD/svg11.dtd">
<svg id="" viewBox="0 0 60 60" version="1.1"
	xmlns="http://www.w3.org/2000/svg" xmlns:xlink="http://www.w3.org/1999/xlink" xml:space="preserve"
	x="0px" y="0px" width="60px" height="60px">
	<g id="Layer%201">
		<path id="Shape%206" d="M 51.1153 51.7164 L 8.8847 51.7164 C 8.0567 51.7164 7.3847 51.0444 7.3847 50.2164 L 7.3847 45.4868 C 7.3847 44.6098 7.3847 42.2798 17.5351 38.5826 C 22.9785 36.5981 23.8575 35.2015 23.8575 32.6254 C 23.8575 32.1997 23.8163 32.1548 23.4335 31.7202 C 22.8417 31.0494 21.9531 30.0406 21.4667 27.5151 C 20.2519 26.8834 19.5313 25.9634 19.3417 23.436 C 19.3399 22.3238 19.6367 21.4986 20.0371 20.9301 C 19.8985 20.103 19.6895 18.7601 19.5821 17.6128 C 19.4335 16.0493 19.9239 13.4868 21.8007 11.4224 C 23.1015 9.9908 25.5821 8.2836 29.9999 8.2836 C 34.4141 8.2836 36.8925 9.9878 38.1933 11.4166 C 40.0723 13.4789 40.5663 16.0444 40.4199 17.6138 C 40.3105 18.7574 40.0995 20.0922 39.9609 20.9194 C 40.3633 21.477 40.6641 22.275 40.6641 23.3238 C 40.4629 26.0434 39.7011 26.941 38.5351 27.5142 C 38.0351 30.0542 37.1543 31.0532 36.5683 31.7192 C 36.1855 32.1537 36.1445 32.1997 36.1445 32.6254 C 36.1445 35.2015 37.0235 36.5981 42.4649 38.5826 C 52.6153 42.2798 52.6153 44.6098 52.6153 45.4868 L 52.6153 50.2164 C 52.6153 51.0444 51.9433 51.7164 51.1153 51.7164 ZM 10.3749 48.7164 L 49.6153 48.7164 L 49.6153 45.4868 C 49.4453 45.2435 47.5781 43.6381 41.4375 41.4008 C 36.0585 39.44 33.1445 37.4614 33.1445 32.6254 C 33.1445 31.066 33.7949 30.3286 34.3163 29.7357 C 34.7871 29.2036 35.2715 28.6528 35.6015 26.8716 C 35.8613 25.4722 36.7577 25.0406 37.1895 24.8326 C 37.3457 24.7554 37.5723 24.4752 37.6679 23.2104 C 37.6641 22.9166 37.5839 22.7592 37.5507 22.7056 C 37.0351 22.3823 36.7597 21.7729 36.8731 21.1626 C 36.8769 21.1412 37.2773 18.9664 37.4317 17.3316 C 37.4999 16.6138 37.2831 14.8716 35.9745 13.436 C 34.6739 12.0084 32.6641 11.2836 29.9999 11.2836 C 27.3339 11.2836 25.3223 12.0092 24.0215 13.4399 C 22.7149 14.8764 22.4999 16.6138 22.5703 17.3316 C 22.7207 18.9681 23.1191 21.142 23.1231 21.1635 C 23.2363 21.771 22.9629 22.3774 22.4531 22.7016 C 22.4179 22.7584 22.3379 22.935 22.3379 23.3238 C 22.4277 24.4752 22.6543 24.7554 22.6563 24.7584 C 23.2421 25.0406 24.1387 25.4722 24.3985 26.8716 C 24.7285 28.6528 25.2149 29.2026 25.6835 29.7348 C 26.2071 30.3276 26.8575 31.066 26.8575 32.6254 C 26.8575 37.4614 23.9413 39.4409 18.5625 41.4008 C 12.4219 43.6381 10.5547 45.2435 10.3535 45.6734 L 10.3749 48.7164 Z" fill="#797a79"/>
	</g>
</svg>
