<?xml version="1.0" standalone="no"?>
<!DOCTYPE svg PUBLIC "-//W3C//DTD SVG 1.1//EN" "http://www.w3.org/Graphics/SVG/1.1/DTD/svg11.dtd">
<svg id="" viewBox="0 0 60 60" version="1.1"
	xmlns="http://www.w3.org/2000/svg" xmlns:xlink="http://www.w3.org/1999/xlink" xml:space="preserve"
	x="0px" y="0px" width="60px" height="60px">
	<g id="Layer%201">
		<path id="Shape%207" d="M 52.8554 26.5541 L 51.5664 27.3071 C 50.6386 27.8519 49.5292 28.7631 49.5292 30.0005 C 49.5292 31.2368 50.6386 32.1479 51.5702 32.6937 L 52.8554 33.4457 C 53.453 33.7944 53.7344 34.5054 53.537 35.1674 L 53.1132 36.5962 C 52.6426 38.1655 52.0176 39.6782 51.2518 41.0962 L 50.5428 42.4078 C 50.2148 43.0152 49.5176 43.3228 48.8418 43.1459 L 47.4022 42.769 C 47.162 42.7056 46.9414 42.6754 46.7284 42.6754 C 46.2694 42.6754 45.5312 42.8041 44.4178 43.9166 C 43.6816 44.6517 43.334 45.3756 43.7304 46.9 L 44.1074 48.3414 C 44.2832 49.0092 43.9764 49.7114 43.369 50.0396 L 42.0586 50.7476 C 40.6464 51.5142 39.1328 52.1402 37.5624 52.6097 L 36.1346 53.0366 C 35.9922 53.0786 35.8476 53.0992 35.705 53.0992 C 35.1836 53.0992 34.6854 52.8256 34.41 52.3579 L 33.6562 51.0718 C 32.9414 49.8492 31.6718 49.0278 30.5 49.0278 C 29.33 49.0278 28.0624 49.8492 27.3476 51.0707 L 26.5918 52.357 C 26.244 52.9526 25.535 53.2289 24.871 53.0345 L 23.4432 52.6097 C 21.8846 52.1459 20.373 51.52 18.9492 50.7495 L 17.6346 50.0434 C 17.0234 49.7163 16.7168 49.0132 16.8926 48.3431 L 17.2694 46.8989 C 17.6718 45.3784 17.3242 44.6547 16.5878 43.9166 C 15.707 43.0424 14.9218 42.8814 13.6014 43.2289 L 12.162 43.606 C 11.4824 43.7828 10.791 43.477 10.4628 42.8705 L 9.75 41.5582 C 8.9824 40.1342 8.3594 38.6236 7.8926 37.062 L 7.4628 35.6334 C 7.2656 34.9692 7.5448 34.2564 8.1426 33.9068 L 9.4316 33.1528 C 10.6522 32.4399 11.4726 31.1734 11.4726 30.0005 C 11.4726 28.7642 10.3612 27.853 9.4296 27.3062 L 8.1426 26.5511 C 7.5448 26.2015 7.2636 25.4888 7.4648 24.8256 L 7.8944 23.397 C 8.3574 21.8452 8.9804 20.3336 9.748 18.9078 L 10.4628 17.5904 C 10.791 16.9847 11.4824 16.6822 12.162 16.856 L 13.6014 17.233 C 13.8378 17.2953 14.0586 17.3256 14.2714 17.3256 C 14.7304 17.3256 15.4706 17.1968 16.5858 16.0826 C 17.3242 15.3452 17.6718 14.6205 17.2714 13.104 L 16.8926 11.6588 C 16.7168 10.9888 17.0234 10.2856 17.6328 9.9576 L 18.9512 9.2486 C 20.3632 8.4847 21.875 7.8589 23.4414 7.3902 L 24.869 6.9633 C 25.535 6.7672 26.2422 7.0474 26.5936 7.6422 L 27.3476 8.9282 C 28.0624 10.15 29.328 10.9702 30.5 10.9702 C 31.6718 10.9702 32.9414 10.15 33.6562 8.9282 L 34.41 7.6422 C 34.7616 7.0474 35.4746 6.7679 36.1346 6.9633 L 37.5624 7.3902 C 39.1366 7.8608 40.6504 8.4878 42.0604 9.2534 L 43.371 9.9624 C 43.9784 10.2916 44.2832 10.9936 44.1074 11.6616 L 43.7304 13.1019 C 43.334 14.6255 43.6816 15.3482 44.416 16.0826 C 45.5292 17.1968 46.2694 17.3247 46.7304 17.3247 C 46.9432 17.3247 47.164 17.2943 47.4042 17.232 L 48.8398 16.853 C 49.5018 16.6703 50.2128 16.981 50.5428 17.5904 L 51.2518 18.9037 C 52.0176 20.3218 52.6426 21.8336 53.1132 23.3989 L 53.537 24.8326 C 53.7344 25.4955 53.453 26.2066 52.8554 26.5541 ZM 50.2382 24.2563 C 49.828 22.8901 49.2812 21.5677 48.6112 20.3295 L 48.4628 20.0552 L 48.166 20.1334 C 46.0468 20.6879 44.1464 20.0582 42.2968 18.2036 C 40.6758 16.5864 40.207 14.7242 40.828 12.3442 L 40.9082 12.0406 L 40.6308 11.8911 C 39.4004 11.2231 38.08 10.6761 36.703 10.2651 L 36.4042 10.1754 L 36.246 10.4458 C 34.9902 12.5864 32.7344 13.9702 30.5 13.9702 C 28.2656 13.9702 26.0116 12.5864 24.7578 10.4448 L 24.5996 10.1754 L 24.3008 10.2651 C 22.9316 10.6744 21.6112 11.2211 20.3768 11.8892 L 20.0936 12.0406 L 20.1718 12.3403 C 20.7988 14.7114 20.334 16.5756 18.707 18.2046 C 16.8496 20.059 14.9472 20.6832 12.8418 20.1351 L 12.537 20.0562 L 12.3866 20.3344 C 11.7186 21.5756 11.1738 22.8969 10.7676 24.2574 L 10.6758 24.559 L 10.9472 24.7181 C 13.2538 26.0728 14.4726 27.8989 14.4726 30.0005 C 14.4726 32.2368 13.0878 34.4908 10.9452 35.7426 L 10.6758 35.9008 L 10.7676 36.2016 C 11.1758 37.5698 11.7206 38.8912 12.3886 40.1304 L 12.539 40.4058 L 12.8398 40.3266 C 15.2382 39.6968 17.078 40.1733 18.707 41.7933 C 20.3358 43.4254 20.7988 45.2886 20.1698 47.6616 L 20.0936 47.9594 L 20.371 48.1089 C 21.619 48.7838 22.9394 49.3296 24.2988 49.7347 L 24.5996 49.8248 L 24.7596 49.5532 C 26.0136 47.4125 28.2676 46.0278 30.5 46.0278 C 32.7344 46.0278 34.9882 47.4116 36.246 49.5541 L 36.4042 49.8248 L 36.703 49.7347 C 38.0762 49.3248 39.3984 48.7778 40.6308 48.1097 L 40.9082 47.9604 L 40.828 47.6568 C 40.209 45.2778 40.6758 43.4156 42.2968 41.7944 C 44.1504 39.941 46.0624 39.3159 48.162 39.8668 L 48.4628 39.9458 L 48.6112 39.6703 C 49.2812 38.4322 49.828 37.1089 50.2382 35.7388 L 50.3262 35.4427 L 50.0546 35.2827 C 47.748 33.9282 46.5292 32.1019 46.5292 30.0005 C 46.5292 27.898 47.748 26.0718 50.0508 24.7181 L 50.3262 24.5571 L 50.2382 24.2563 ZM 30.5 39.2642 C 25.3926 39.2642 21.2382 35.109 21.2382 30.0005 C 21.2382 24.8922 25.3926 20.7357 30.5 20.7357 C 35.6074 20.7357 39.7636 24.8922 39.7636 30.0005 C 39.7636 35.109 35.6074 39.2642 30.5 39.2642 ZM 30.5 23.7357 C 27.0468 23.7357 24.2382 26.5463 24.2382 30.0005 C 24.2382 33.4545 27.0468 36.2642 30.5 36.2642 C 33.953 36.2642 36.7636 33.4545 36.7636 30.0005 C 36.7636 26.5463 33.953 23.7357 30.5 23.7357 Z" fill="#797a79"/>
	</g>
</svg>
