<?xml version="1.0" standalone="no"?>
<!DOCTYPE svg PUBLIC "-//W3C//DTD SVG 1.1//EN" "http://www.w3.org/Graphics/SVG/1.1/DTD/svg11.dtd">
<svg id="" viewBox="0 0 60 60" version="1.1"
	xmlns="http://www.w3.org/2000/svg" xmlns:xlink="http://www.w3.org/1999/xlink" xml:space="preserve"
	x="0px" y="0px" width="60px" height="60px">
	<g id="Layer%201">
		<path id="Shape%208" d="M 31.1064 53.1102 C 27.1904 53.1102 23.3544 52.0997 19.9696 50.1807 L 11.1376 52.9415 C 9.7586 53.3769 8.1962 52.9326 7.243 51.8525 C 6.2744 50.7501 6.0418 49.1797 6.6532 47.8486 L 10.415 39.623 C 9.1572 36.7617 8.495 33.6221 8.495 30.5001 C 8.495 18.0323 18.6376 7.8896 31.1064 7.8896 C 43.5732 7.8896 53.7158 18.0323 53.7158 30.5001 C 53.7158 42.9677 43.5732 53.1102 31.1064 53.1102 ZM 31.1064 10.8896 C 20.2918 10.8896 11.495 19.6865 11.495 30.5001 C 11.495 33.4141 12.161 36.3447 13.4188 38.9747 C 13.6102 39.3759 13.6142 39.8417 13.4286 40.246 L 9.3798 49.0986 C 9.2626 49.3555 9.3076 49.6573 9.495 49.8701 C 9.6766 50.0771 9.9774 50.1583 10.243 50.0781 L 19.7078 47.1191 C 19.8544 47.0733 20.0048 47.0507 20.1552 47.0507 C 20.4266 47.0507 20.6962 47.1251 20.9344 47.2695 C 23.9912 49.1278 27.5086 50.1102 31.1064 50.1102 C 41.9188 50.1102 50.7158 41.3135 50.7158 30.5001 C 50.7158 19.6865 41.9188 10.8896 31.1064 10.8896 ZM 39.9384 33.4199 C 38.3232 33.4199 37.0164 32.1132 37.0164 30.5001 C 37.0164 28.8867 38.3232 27.5801 39.9384 27.5801 C 41.5496 27.5801 42.8582 28.8867 42.8582 30.5001 C 42.8582 32.1132 41.5496 33.4199 39.9384 33.4199 ZM 31.4754 33.4199 C 29.8642 33.4199 28.5556 32.1132 28.5556 30.5001 C 28.5556 28.8867 29.8642 27.5801 31.4754 27.5801 C 33.0868 27.5801 34.3954 28.8867 34.3954 30.5001 C 34.3954 32.1132 33.0868 33.4199 31.4754 33.4199 ZM 23.0126 33.4199 C 21.4012 33.4199 20.0926 32.1132 20.0926 30.5001 C 20.0926 28.8867 21.4012 27.5801 23.0126 27.5801 C 24.6258 27.5801 25.9326 28.8867 25.9326 30.5001 C 25.9326 32.1132 24.6258 33.4199 23.0126 33.4199 Z" fill="#797a79"/>
	</g>
</svg>
