<?xml version="1.0" standalone="no"?>
<!DOCTYPE svg PUBLIC "-//W3C//DTD SVG 1.1//EN" "http://www.w3.org/Graphics/SVG/1.1/DTD/svg11.dtd">
<svg id="" viewBox="0 0 60 60" version="1.1"
	xmlns="http://www.w3.org/2000/svg" xmlns:xlink="http://www.w3.org/1999/xlink" xml:space="preserve"
	x="0px" y="0px" width="60px" height="60px">
	<g id="Layer%201">
		<path id="Shape%204" d="M 30.4865 52.8838 C 26.7403 52.8838 23.6914 49.8124 23.6914 46.0369 C 23.6914 42.2626 26.7403 39.1913 30.4865 39.1913 C 34.2324 39.1913 37.2795 42.2626 37.2795 46.0369 C 37.2795 49.8124 34.2324 52.8838 30.4865 52.8838 ZM 30.4865 42.1913 C 28.3947 42.1913 26.6915 43.917 26.6915 46.0369 C 26.6915 48.1582 28.3947 49.8838 30.4865 49.8838 C 32.5782 49.8838 34.2794 48.1582 34.2794 46.0369 C 34.2794 43.917 32.5782 42.1913 30.4865 42.1913 ZM 37.9747 39.9763 C 37.5743 39.9763 37.1894 39.8163 36.9083 39.5322 C 35.1934 37.7997 32.914 36.8456 30.4882 36.8456 C 28.0645 36.8456 25.7833 37.7997 24.0705 39.5311 C 23.5078 40.1013 22.5 40.1013 21.9376 39.5311 L 18.1955 35.7499 C 17.6173 35.166 17.6173 34.2245 18.1955 33.6406 C 21.4767 30.326 25.8398 28.501 30.4845 28.501 C 35.1291 28.501 39.496 30.3252 42.7795 33.6395 C 43.3575 34.2236 43.3575 35.1649 42.7795 35.7499 L 39.0411 39.5311 C 38.7598 39.8163 38.3751 39.9763 37.9747 39.9763 L 37.9747 39.9763 ZM 21.4259 34.749 L 23.0704 36.4099 C 27.289 33.084 33.6856 33.084 37.9082 36.4099 L 39.5509 34.7499 C 36.9942 32.6443 33.8263 31.501 30.4845 31.501 C 27.1447 31.501 23.9787 32.6443 21.4259 34.749 ZM 45.457 32.4169 C 45.0566 32.4169 44.6738 32.2568 44.3906 31.9726 C 40.6739 28.2206 35.7365 26.1542 30.4845 26.1542 C 25.2345 26.1542 20.2969 28.2206 16.5841 31.9726 C 16.0215 32.541 15.0177 32.541 14.4513 31.9726 L 10.709 28.1932 C 10.1308 27.6083 10.1308 26.6669 10.709 26.0829 C 15.9903 20.746 23.0136 17.8076 30.4845 17.8076 C 37.9551 17.8076 44.9786 20.746 50.2599 26.0829 C 50.8379 26.6669 50.8379 27.6074 50.2599 28.1923 L 46.5234 31.9716 C 46.2423 32.2568 45.8575 32.4169 45.457 32.4169 L 45.457 32.4169 ZM 13.9161 27.1677 L 15.5529 28.8201 C 19.6857 25.1552 24.9337 23.1542 30.4845 23.1542 C 36.0373 23.1542 41.2852 25.1552 45.4219 28.8192 L 47.0528 27.1688 C 42.4825 23.0556 36.6545 20.8076 30.4845 20.8076 C 24.3145 20.8076 18.4864 23.0556 13.9161 27.1677 ZM 52.9395 24.8564 C 52.5391 24.8564 52.1563 24.6962 51.8731 24.412 C 46.1583 18.6406 38.5627 15.4628 30.4845 15.4628 C 22.4063 15.4628 14.8127 18.6406 9.0997 24.412 C 8.5373 24.9803 7.5333 24.9803 6.9669 24.412 L 3.2227 20.6328 C 2.6447 20.0477 2.6447 19.1064 3.2227 18.5214 C 10.5059 11.166 20.1876 7.1162 30.4865 7.1162 C 40.7853 7.1162 50.4668 11.167 57.746 18.5223 C 58.3242 19.1064 58.3242 20.0477 57.746 20.6318 L 54.0059 24.4109 C 53.7247 24.6962 53.3398 24.8564 52.9395 24.8564 ZM 6.4219 19.5986 L 8.0566 21.248 C 14.1973 15.5712 22.1037 12.4628 30.4845 12.4628 C 38.8652 12.4628 46.7715 15.5712 52.9161 21.248 L 54.5489 19.5986 C 47.9708 13.4716 39.4844 10.1162 30.4865 10.1162 C 21.4883 10.1162 13.0001 13.4716 6.4219 19.5986 Z" fill="#797a79"/>
	</g>
</svg>
