<?xml version="1.0" standalone="no"?>
<!DOCTYPE svg PUBLIC "-//W3C//DTD SVG 1.1//EN" "http://www.w3.org/Graphics/SVG/1.1/DTD/svg11.dtd">
<svg id="" viewBox="0 0 60 60" version="1.1"
	xmlns="http://www.w3.org/2000/svg" xmlns:xlink="http://www.w3.org/1999/xlink" xml:space="preserve"
	x="0px" y="0px" width="60px" height="60px">
	<g id="Layer%201">
		<path id="Shape%203" d="M 22.1221 52.3857 C 22.0849 52.3857 21.9599 52.3818 21.9209 52.3788 C 21.6847 52.3614 21.4561 52.287 21.2549 52.1639 L 14.2003 47.8564 C 13.8603 47.6494 13.6163 47.3154 13.5225 46.9285 C 13.4307 46.542 13.4931 46.1337 13.7021 45.7939 L 18.9013 37.2822 C 19.2881 36.6494 20.0811 36.3983 20.7627 36.6816 L 25.2159 38.5566 L 34.7901 22.8798 L 31.0831 19.7773 C 30.5127 19.2998 30.3779 18.4786 30.7667 17.8447 L 35.9697 9.3319 C 36.3995 8.626 37.3213 8.4023 38.0303 8.834 L 45.0811 13.1405 C 45.2843 13.2646 45.4541 13.4336 45.5771 13.6358 C 45.9931 14.3123 49.3761 20.7011 40.1123 36.3857 C 40.1123 36.3857 39.7725 36.9951 39.6925 37.1249 C 39.6417 37.21 39.5811 37.288 39.5167 37.3583 C 30.4229 51.6572 23.4365 52.3857 22.1221 52.3857 ZM 17.0439 46.0781 L 22.4209 49.3614 C 23.7705 49.1826 29.4425 47.7012 37.1261 35.5274 C 37.1631 35.4658 37.2061 35.4081 37.2529 35.3544 C 37.3663 35.1542 37.5107 34.8945 37.5107 34.8936 C 44.8935 22.3906 43.5771 16.6924 43.1319 15.4648 L 37.7471 12.1758 L 33.9991 18.3065 L 37.7061 21.4092 C 38.2763 21.8857 38.4111 22.7079 38.0225 23.3418 L 27.1045 41.2216 C 26.7159 41.8553 25.9249 42.1094 25.2413 41.8231 L 20.7881 39.9471 L 17.0439 46.0781 Z" fill="#797a79"/>
	</g>
</svg>
