<?xml version="1.0" standalone="no"?>
<!DOCTYPE svg PUBLIC "-//W3C//DTD SVG 1.1//EN" "http://www.w3.org/Graphics/SVG/1.1/DTD/svg11.dtd">
<svg id="" viewBox="0 0 80 80" version="1.1"
	xmlns="http://www.w3.org/2000/svg" xmlns:xlink="http://www.w3.org/1999/xlink" xml:space="preserve"
	x="0px" y="0px" width="80px" height="80px">
	<g id="Layer%201">
		<path id="Shape%206" visibility="hidden" d="M 40.5019 63 C 36.7823 63 33.755 59.9131 33.755 56.1186 C 33.755 52.3251 36.7823 49.238 40.5019 49.238 C 44.2216 49.238 47.247 52.3251 47.247 56.1186 C 47.247 59.9131 44.2216 63 40.5019 63 ZM 40.5019 52.2533 C 38.4248 52.2533 36.7338 53.9876 36.7338 56.1186 C 36.7338 58.2504 38.4248 59.9847 40.5019 59.9847 C 42.5789 59.9847 44.2682 58.2504 44.2682 56.1186 C 44.2682 53.9876 42.5789 52.2533 40.5019 52.2533 ZM 47.9375 50.0272 C 47.5399 50.0272 47.1578 49.8663 46.8786 49.5806 C 45.1757 47.8393 42.9125 46.8805 40.5039 46.8805 C 38.0972 46.8805 35.8321 47.8393 34.1311 49.5798 C 33.5727 50.1529 32.572 50.1529 32.0134 49.5798 L 28.2976 45.7791 C 27.7237 45.1921 27.7237 44.246 28.2976 43.659 C 31.5556 40.3279 35.8882 38.4935 40.5001 38.4935 C 45.1117 38.4935 49.4481 40.3269 52.7082 43.6583 C 53.2823 44.245 53.2823 45.1914 52.7082 45.7791 L 48.9963 49.5798 C 48.7171 49.8663 48.335 50.0272 47.9375 50.0272 L 47.9375 50.0272 ZM 31.5054 44.7731 L 33.1382 46.4428 C 37.3272 43.0997 43.6785 43.0997 47.8715 46.4428 L 49.5025 44.7741 C 46.9638 42.658 43.8183 41.5086 40.5001 41.5086 C 37.1837 41.5086 34.04 42.658 31.5054 44.7731 ZM 55.3671 42.4293 C 54.9695 42.4293 54.5894 42.2685 54.3082 41.9828 C 50.6176 38.2118 45.7148 36.1349 40.5001 36.1349 C 35.2871 36.1349 30.3844 38.2118 26.6978 41.9828 C 26.1391 42.5539 25.1424 42.5539 24.58 41.9828 L 20.8642 38.1843 C 20.2901 37.5963 20.2901 36.6501 20.8642 36.0631 C 26.1082 30.6992 33.082 27.7458 40.5001 27.7458 C 47.918 27.7458 54.8919 30.6992 60.136 36.0631 C 60.7099 36.6501 60.7099 37.5953 60.136 38.1833 L 56.4259 41.9818 C 56.1467 42.2685 55.7647 42.4293 55.3671 42.4293 L 55.3671 42.4293 ZM 24.0486 37.1536 L 25.6736 38.8143 C 29.7772 35.1307 34.9884 33.1197 40.5001 33.1197 C 46.0135 33.1197 51.2245 35.1307 55.3322 38.8134 L 56.9514 37.1546 C 52.4135 33.0206 46.6264 30.7609 40.5001 30.7609 C 34.3736 30.7609 28.5865 33.0206 24.0486 37.1536 ZM 62.7967 34.8304 C 62.3991 34.8304 62.019 34.6695 61.7378 34.3839 C 56.0634 28.583 48.5211 25.3891 40.5001 25.3891 C 32.4789 25.3891 24.9387 28.583 19.2661 34.3839 C 18.7075 34.9552 17.7108 34.9552 17.1484 34.3839 L 13.4306 30.5853 C 12.8565 29.9975 12.8565 29.0514 13.4306 28.4633 C 20.6624 21.0704 30.2757 17 40.5019 17 C 50.728 17 60.3415 21.0713 67.5694 28.4643 C 68.1435 29.0514 68.1435 29.9975 67.5694 30.5844 L 63.8556 34.3828 C 63.5764 34.6695 63.1943 34.8304 62.7967 34.8304 ZM 16.6072 29.5458 L 18.2305 31.2039 C 24.3278 25.4982 32.1782 22.374 40.5001 22.374 C 48.8218 22.374 56.6722 25.4982 62.7735 31.2039 L 64.3948 29.5458 C 57.8629 23.3879 49.4366 20.0153 40.5019 20.0153 C 31.5673 20.0153 23.139 23.3879 16.6072 29.5458 Z" fill="#9fb629"/>
		<path id="Shape%203" d="M 39.6047 20.8916 L 38.3462 23.7832 L 40.0268 23.7832 L 40.0268 49.8579 C 39.4925 49.224 38.8593 48.5964 38.2326 48.0061 C 37.4074 47.2306 36.5913 46.5229 36.0698 46.027 C 35.4082 45.398 35.0273 44.823 34.8127 44.4179 C 34.7051 44.2151 34.6396 44.0553 34.6025 43.9533 C 34.5953 43.9332 34.5891 43.9154 34.5839 43.8999 L 34.5839 39.6284 C 35.7076 39.2681 36.5233 38.1889 36.5233 36.9139 C 36.5233 35.3439 35.2867 34.0713 33.7615 34.0713 C 32.2363 34.0713 31 35.3439 31 36.9139 C 31 38.2407 31.8844 39.3522 33.0787 39.6655 L 33.0787 44.1058 C 33.0787 44.1058 33.0988 44.1921 33.0992 44.1938 C 33.6439 46.5206 35.9469 47.7893 37.4668 49.3836 C 38.2319 50.186 38.8117 51.129 39.4335 52.047 C 39.63 52.3135 39.8636 52.8265 40.0268 53.2424 L 40.0268 55.442 C 38.1084 55.841 36.6641 57.5856 36.6641 59.6781 C 36.6641 62.0651 38.5438 64 40.8628 64 C 43.1817 64 45.0618 62.0651 45.0618 59.6781 C 45.0618 57.5858 43.6173 55.8412 41.6991 55.442 C 41.6991 55.442 41.6991 47.1372 41.6991 47.1015 C 41.6991 46.2683 42.434 45.0856 42.8719 44.4209 C 43.7464 43.0931 45.0082 42.1833 46.2207 41.2135 C 47.4974 40.1922 49.004 38.9208 49.0529 37.1224 C 49.0612 36.8146 48.9743 33.285 49.021 33.285 L 51 33.285 L 51 27.4324 L 45.3143 27.4324 L 45.3143 33.285 L 47.5163 33.285 L 47.5163 37.4318 C 47.1696 37.9353 46.1549 39.3172 45.2999 39.9876 C 44.7028 40.4629 43.5634 41.312 42.4937 42.316 C 42.2006 42.5958 41.9376 42.8934 41.6991 43.2039 L 41.6991 23.7832 L 43.3797 23.7832 L 42.1213 20.8916 L 40.8629 18 L 39.6047 20.8916 Z" fill="#9fb729"/>
	</g>
</svg>
