<?xml version="1.0" standalone="no"?>
<!DOCTYPE svg PUBLIC "-//W3C//DTD SVG 1.1//EN" "http://www.w3.org/Graphics/SVG/1.1/DTD/svg11.dtd">
<svg id="" viewBox="0 0 80 80" version="1.1"
	xmlns="http://www.w3.org/2000/svg" xmlns:xlink="http://www.w3.org/1999/xlink" xml:space="preserve"
	x="0px" y="0px" width="80px" height="80px">
	<g id="Layer%201">
		<path id="Shape%206" visibility="hidden" d="M 40.5019 63 C 36.7823 63 33.755 59.9131 33.755 56.1186 C 33.755 52.3251 36.7823 49.238 40.5019 49.238 C 44.2216 49.238 47.247 52.3251 47.247 56.1186 C 47.247 59.9131 44.2216 63 40.5019 63 ZM 40.5019 52.2533 C 38.4248 52.2533 36.7338 53.9876 36.7338 56.1186 C 36.7338 58.2504 38.4248 59.9847 40.5019 59.9847 C 42.5789 59.9847 44.2682 58.2504 44.2682 56.1186 C 44.2682 53.9876 42.5789 52.2533 40.5019 52.2533 ZM 47.9375 50.0272 C 47.5399 50.0272 47.1578 49.8663 46.8786 49.5806 C 45.1757 47.8393 42.9125 46.8805 40.5039 46.8805 C 38.0972 46.8805 35.8321 47.8393 34.1311 49.5798 C 33.5727 50.1529 32.572 50.1529 32.0134 49.5798 L 28.2976 45.7791 C 27.7237 45.1921 27.7237 44.246 28.2976 43.659 C 31.5556 40.3279 35.8882 38.4935 40.5001 38.4935 C 45.1117 38.4935 49.4481 40.3269 52.7082 43.6583 C 53.2823 44.245 53.2823 45.1914 52.7082 45.7791 L 48.9963 49.5798 C 48.7171 49.8663 48.335 50.0272 47.9375 50.0272 L 47.9375 50.0272 ZM 31.5054 44.7731 L 33.1382 46.4428 C 37.3272 43.0997 43.6785 43.0997 47.8715 46.4428 L 49.5025 44.7741 C 46.9638 42.658 43.8183 41.5086 40.5001 41.5086 C 37.1837 41.5086 34.04 42.658 31.5054 44.7731 ZM 55.3671 42.4293 C 54.9695 42.4293 54.5894 42.2685 54.3082 41.9828 C 50.6176 38.2118 45.7148 36.1349 40.5001 36.1349 C 35.2871 36.1349 30.3844 38.2118 26.6978 41.9828 C 26.1391 42.5539 25.1424 42.5539 24.58 41.9828 L 20.8642 38.1843 C 20.2901 37.5963 20.2901 36.6501 20.8642 36.0631 C 26.1082 30.6992 33.082 27.7458 40.5001 27.7458 C 47.918 27.7458 54.8919 30.6992 60.136 36.0631 C 60.7099 36.6501 60.7099 37.5953 60.136 38.1833 L 56.4259 41.9818 C 56.1467 42.2685 55.7647 42.4293 55.3671 42.4293 L 55.3671 42.4293 ZM 24.0486 37.1536 L 25.6736 38.8143 C 29.7772 35.1307 34.9884 33.1197 40.5001 33.1197 C 46.0135 33.1197 51.2245 35.1307 55.3322 38.8134 L 56.9514 37.1546 C 52.4135 33.0206 46.6264 30.7609 40.5001 30.7609 C 34.3736 30.7609 28.5865 33.0206 24.0486 37.1536 ZM 62.7967 34.8304 C 62.3991 34.8304 62.019 34.6695 61.7378 34.3839 C 56.0634 28.583 48.5211 25.3891 40.5001 25.3891 C 32.4789 25.3891 24.9387 28.583 19.2661 34.3839 C 18.7075 34.9552 17.7108 34.9552 17.1484 34.3839 L 13.4306 30.5853 C 12.8565 29.9975 12.8565 29.0514 13.4306 28.4633 C 20.6624 21.0704 30.2757 17 40.5019 17 C 50.728 17 60.3415 21.0713 67.5694 28.4643 C 68.1435 29.0514 68.1435 29.9975 67.5694 30.5844 L 63.8556 34.3828 C 63.5764 34.6695 63.1943 34.8304 62.7967 34.8304 ZM 16.6072 29.5458 L 18.2305 31.2039 C 24.3278 25.4982 32.1782 22.374 40.5001 22.374 C 48.8218 22.374 56.6722 25.4982 62.7735 31.2039 L 64.3948 29.5458 C 57.8629 23.3879 49.4366 20.0153 40.5019 20.0153 C 31.5673 20.0153 23.139 23.3879 16.6072 29.5458 Z" fill="#9fb629"/>
		<path id="Shape%208" d="M 31.6308 64 C 31.5937 64 31.4688 63.9958 31.4298 63.9926 C 31.1939 63.9743 30.9656 63.8962 30.7646 63.7668 L 23.7181 59.24 C 23.3786 59.0224 23.1348 58.6714 23.0411 58.2649 C 22.9495 57.8587 23.0118 57.4297 23.2205 57.0726 L 28.4137 48.1274 C 28.8001 47.4625 29.5922 47.1987 30.273 47.4963 L 34.7211 49.4667 L 44.2842 32.9919 L 40.5815 29.7315 C 40.0117 29.2296 39.8771 28.3667 40.2654 27.7006 L 45.4625 18.7544 C 45.8918 18.0124 46.8125 17.7775 47.5207 18.2311 L 54.5634 22.7569 C 54.7663 22.8872 54.9359 23.0648 55.0588 23.2773 C 55.4743 23.9883 58.8534 30.7024 49.6003 47.1854 C 49.6003 47.1854 49.2609 47.8259 49.181 47.9622 C 49.1302 48.0517 49.0697 48.1335 49.0054 48.2076 C 39.9221 63.2343 32.9437 64 31.6308 64 ZM 26.5585 57.3713 L 31.9293 60.8216 C 33.2773 60.6337 38.9428 59.0769 46.6175 46.2834 C 46.6545 46.2186 46.6974 46.1581 46.7442 46.1016 C 46.8574 45.8912 47.0017 45.6183 47.0017 45.6173 C 54.376 32.4777 53.0611 26.4895 52.6164 25.1994 L 47.2378 21.743 L 43.4941 28.1859 L 47.1969 31.4464 C 47.7664 31.9473 47.901 32.8113 47.5129 33.4774 L 36.6075 52.2674 C 36.2193 52.9335 35.4292 53.2005 34.7465 52.8996 L 30.2984 50.9281 L 26.5585 57.3713 Z" fill="#9fb629"/>
	</g>
</svg>
