<?xml version="1.0" standalone="no"?>
<!DOCTYPE svg PUBLIC "-//W3C//DTD SVG 1.1//EN" "http://www.w3.org/Graphics/SVG/1.1/DTD/svg11.dtd">
<svg id="" viewBox="0 0 80 80" version="1.1"
	xmlns="http://www.w3.org/2000/svg" xmlns:xlink="http://www.w3.org/1999/xlink" xml:space="preserve"
	x="0px" y="0px" width="80px" height="80px">
	<g id="Layer%201">
		<path id="Shape%206" visibility="hidden" d="M 40.5019 63 C 36.7823 63 33.755 59.9131 33.755 56.1186 C 33.755 52.3251 36.7823 49.238 40.5019 49.238 C 44.2216 49.238 47.247 52.3251 47.247 56.1186 C 47.247 59.9131 44.2216 63 40.5019 63 ZM 40.5019 52.2533 C 38.4248 52.2533 36.7338 53.9876 36.7338 56.1186 C 36.7338 58.2504 38.4248 59.9847 40.5019 59.9847 C 42.5789 59.9847 44.2682 58.2504 44.2682 56.1186 C 44.2682 53.9876 42.5789 52.2533 40.5019 52.2533 ZM 47.9375 50.0272 C 47.5399 50.0272 47.1578 49.8663 46.8786 49.5806 C 45.1757 47.8393 42.9125 46.8805 40.5039 46.8805 C 38.0972 46.8805 35.8321 47.8393 34.1311 49.5798 C 33.5727 50.1529 32.572 50.1529 32.0134 49.5798 L 28.2976 45.7791 C 27.7237 45.1921 27.7237 44.246 28.2976 43.659 C 31.5556 40.3279 35.8882 38.4935 40.5001 38.4935 C 45.1117 38.4935 49.4481 40.3269 52.7082 43.6583 C 53.2823 44.245 53.2823 45.1914 52.7082 45.7791 L 48.9963 49.5798 C 48.7171 49.8663 48.335 50.0272 47.9375 50.0272 L 47.9375 50.0272 ZM 31.5054 44.7731 L 33.1382 46.4428 C 37.3272 43.0997 43.6785 43.0997 47.8715 46.4428 L 49.5025 44.7741 C 46.9638 42.658 43.8183 41.5086 40.5001 41.5086 C 37.1837 41.5086 34.04 42.658 31.5054 44.7731 ZM 55.3671 42.4293 C 54.9695 42.4293 54.5894 42.2685 54.3082 41.9828 C 50.6176 38.2118 45.7148 36.1349 40.5001 36.1349 C 35.2871 36.1349 30.3844 38.2118 26.6978 41.9828 C 26.1391 42.5539 25.1424 42.5539 24.58 41.9828 L 20.8642 38.1843 C 20.2901 37.5963 20.2901 36.6501 20.8642 36.0631 C 26.1082 30.6992 33.082 27.7458 40.5001 27.7458 C 47.918 27.7458 54.8919 30.6992 60.136 36.0631 C 60.7099 36.6501 60.7099 37.5953 60.136 38.1833 L 56.4259 41.9818 C 56.1467 42.2685 55.7647 42.4293 55.3671 42.4293 L 55.3671 42.4293 ZM 24.0486 37.1536 L 25.6736 38.8143 C 29.7772 35.1307 34.9884 33.1197 40.5001 33.1197 C 46.0135 33.1197 51.2245 35.1307 55.3322 38.8134 L 56.9514 37.1546 C 52.4135 33.0206 46.6264 30.7609 40.5001 30.7609 C 34.3736 30.7609 28.5865 33.0206 24.0486 37.1536 ZM 62.7967 34.8304 C 62.3991 34.8304 62.019 34.6695 61.7378 34.3839 C 56.0634 28.583 48.5211 25.3891 40.5001 25.3891 C 32.4789 25.3891 24.9387 28.583 19.2661 34.3839 C 18.7075 34.9552 17.7108 34.9552 17.1484 34.3839 L 13.4306 30.5853 C 12.8565 29.9975 12.8565 29.0514 13.4306 28.4633 C 20.6624 21.0704 30.2757 17 40.5019 17 C 50.728 17 60.3415 21.0713 67.5694 28.4643 C 68.1435 29.0514 68.1435 29.9975 67.5694 30.5844 L 63.8556 34.3828 C 63.5764 34.6695 63.1943 34.8304 62.7967 34.8304 ZM 16.6072 29.5458 L 18.2305 31.2039 C 24.3278 25.4982 32.1782 22.374 40.5001 22.374 C 48.8218 22.374 56.6722 25.4982 62.7735 31.2039 L 64.3948 29.5458 C 57.8629 23.3879 49.4366 20.0153 40.5019 20.0153 C 31.5673 20.0153 23.139 23.3879 16.6072 29.5458 Z" fill="#9fb629"/>
		<path id="Shape%207" d="M 75.8467 57.1069 L 43.3765 57.1069 C 42.7398 57.1069 42.2232 56.5931 42.2232 55.9597 L 42.2232 52.3431 C 42.2232 51.6724 42.2232 49.8905 50.0275 47.063 C 54.2129 45.5455 54.8886 44.4775 54.8886 42.5075 C 54.8886 42.1818 54.857 42.1476 54.5627 41.8152 C 54.1077 41.3021 53.4245 40.5308 53.0505 38.5995 C 52.1165 38.1162 51.5624 37.4128 51.4166 35.48 C 51.4152 34.6295 51.6434 33.9985 51.9513 33.5637 C 51.8447 32.9312 51.6841 31.9042 51.6015 31.0269 C 51.4872 29.8311 51.8643 27.8715 53.3073 26.2929 C 54.3074 25.1981 56.2147 23.8925 59.6115 23.8925 C 63.0055 23.8925 64.9111 25.1957 65.9112 26.2882 C 67.3559 27.8656 67.7358 29.8274 67.6232 31.0276 C 67.5391 31.9022 67.3768 32.9229 67.2703 33.5555 C 67.5797 33.9819 67.811 34.592 67.811 35.3942 C 67.6563 37.474 67.0706 38.1603 66.174 38.5988 C 65.7896 40.5412 65.1124 41.3052 64.6618 41.8145 C 64.3675 42.1468 64.3359 42.1818 64.3359 42.5075 C 64.3359 44.4775 65.0118 45.5455 69.1955 47.063 C 77 49.8905 77 51.6724 77 52.3431 L 77 55.9597 C 77 56.5931 76.4833 57.1069 75.8467 57.1069 ZM 74.6934 52.3431 C 74.5627 52.1571 73.127 50.9293 68.4056 49.2183 C 64.2698 47.7189 62.0293 46.2057 62.0293 42.5075 C 62.0293 41.3148 62.5294 40.751 62.9303 40.2977 C 63.2923 39.8907 63.6647 39.4695 63.9184 38.1074 C 64.1182 37.0371 64.8074 36.7071 65.1394 36.5479 C 65.2595 36.4891 65.4337 36.2745 65.5073 35.3075 C 65.5043 35.0826 65.4426 34.9624 65.4171 34.9214 C 65.0207 34.6743 64.809 34.2083 64.8961 33.7415 C 64.899 33.7249 65.2069 32.0618 65.3256 30.8118 C 65.3781 30.2629 65.2114 28.9306 64.2052 27.8327 C 63.2052 26.7408 61.6599 26.1867 59.6115 26.1867 C 57.5616 26.1867 56.015 26.7416 55.0148 27.8357 C 54.0102 28.9342 53.8449 30.2629 53.8991 30.8118 C 54.0147 32.0633 54.321 33.7257 54.324 33.7423 C 54.4111 34.2067 54.2009 34.6705 53.8089 34.9184 C 53.7818 34.9617 53.7203 35.0968 53.7203 35.3942 C 53.7894 36.2745 53.9636 36.4891 53.9651 36.4912 C 54.4155 36.7071 55.1049 37.0371 55.3047 38.1074 C 55.5584 39.4695 55.9324 39.8899 56.2927 40.2969 C 56.6953 40.7503 57.1952 41.3148 57.1952 42.5075 C 57.1952 46.2057 54.9532 47.7194 50.8175 49.2183 C 46.0961 50.9293 44.6605 52.1571 44.5058 52.4856 L 44.5222 54.8127 L 74.6934 54.8127 L 74.6934 52.3431 ZM 43.3795 36.2261 C 43.1632 36.4442 42.8674 36.5667 42.5596 36.5667 C 42.2517 36.5667 41.9574 36.4442 41.7397 36.2269 C 37.3455 31.8131 31.5055 29.3832 25.2943 29.3832 C 19.0833 29.3832 13.2446 31.8131 8.8519 36.2269 C 8.4196 36.6616 7.6476 36.6616 7.2121 36.2269 L 4.3335 33.3366 C 3.8888 32.8894 3.8888 32.1694 4.3335 31.7221 C 9.9333 26.097 17.3773 23 25.2958 23 C 33.2144 23 40.6583 26.0979 46.2553 31.7229 C 46.6998 32.1694 46.6998 32.8894 46.2553 33.3359 L 43.3795 36.2261 ZM 25.2958 25.2942 C 18.3775 25.2942 11.8509 27.8603 6.7932 32.5457 L 8.0502 33.8073 C 12.7715 29.466 18.8504 27.089 25.2943 27.089 C 31.7382 27.089 37.8172 29.466 42.5416 33.8073 L 43.797 32.5457 C 38.7392 27.8603 32.2142 25.2942 25.2958 25.2942 ZM 25.2943 31.1761 C 31.0384 31.1761 36.4385 33.4234 40.4991 37.5045 C 40.9437 37.9512 40.9437 38.6703 40.4991 39.1177 L 37.6265 42.0079 C 37.4102 42.2261 37.1144 42.3484 36.8065 42.3484 C 36.4987 42.3484 36.2044 42.2261 35.9866 42.0087 C 33.1289 39.1395 29.3324 37.5592 25.2943 37.5592 C 21.2577 37.5592 17.4614 39.1395 14.6066 42.0087 C 14.1742 42.4432 13.4022 42.4432 12.9667 42.0087 L 10.0894 39.1185 C 9.645 38.6711 9.645 37.9512 10.0894 37.5045 C 14.1501 33.4234 19.5503 31.1761 25.2943 31.1761 ZM 13.8136 39.5979 C 16.9913 36.7953 21.0264 35.265 25.2943 35.265 C 29.5637 35.265 33.5988 36.7953 36.7795 39.5972 L 38.0334 38.3351 C 34.5195 35.1895 30.0382 33.4703 25.2943 33.4703 C 20.5504 33.4703 16.0693 35.1895 12.5553 38.3343 L 13.8136 39.5979 ZM 25.2943 39.3537 C 28.8654 39.3537 32.2232 40.7487 34.7476 43.2835 C 35.1922 43.73 35.1922 44.45 34.7476 44.8973 L 31.8734 47.789 C 31.657 48.0069 31.3612 48.1294 31.0533 48.1294 C 30.7456 48.1294 30.4498 48.0069 30.2334 47.7897 C 28.915 46.4648 27.1625 45.7352 25.2973 45.7352 C 23.4337 45.7352 21.6796 46.4648 20.3627 47.789 C 19.9303 48.225 19.1553 48.225 18.7228 47.789 L 15.8456 44.8973 C 15.401 44.4506 15.401 43.7308 15.8456 43.2841 C 18.3684 40.7495 21.7233 39.3537 25.2943 39.3537 ZM 19.5938 45.4022 C 22.8376 42.8585 27.7556 42.8585 31.0022 45.4022 L 32.2652 44.1325 C 30.2995 42.5225 27.8638 41.6479 25.2943 41.6479 C 22.7264 41.6479 20.2921 42.5225 18.3293 44.1317 L 19.5938 45.4022 ZM 25.2958 47.529 C 28.1762 47.529 30.5188 49.8778 30.5188 52.7642 C 30.5188 55.6515 28.1762 58 25.2958 58 C 22.4156 58 20.0713 55.6515 20.0713 52.7642 C 20.0713 49.8778 22.4156 47.529 25.2958 47.529 ZM 25.2958 55.7058 C 26.9042 55.7058 28.2122 54.3862 28.2122 52.7642 C 28.2122 51.1429 26.9042 49.8232 25.2958 49.8232 C 23.6875 49.8232 22.3779 51.1429 22.3779 52.7642 C 22.3779 54.3862 23.6875 55.7058 25.2958 55.7058 Z" fill="#9fb629"/>
	</g>
</svg>
