<?xml version="1.0" standalone="no"?>
<!DOCTYPE svg PUBLIC "-//W3C//DTD SVG 1.1//EN" "http://www.w3.org/Graphics/SVG/1.1/DTD/svg11.dtd">
<svg viewBox="0 0 47 48" version="1.1"
	xmlns="http://www.w3.org/2000/svg" xmlns:xlink="http://www.w3.org/1999/xlink" xml:space="preserve"
	x="0px" y="0px" width="47px" height="48px">
	<g id="Layer%201">
		<path id="Shape%207" d="M 45.8554 20.5541 L 44.5664 21.3071 C 43.6386 21.8519 42.5292 22.7631 42.5292 24.0005 C 42.5292 25.2368 43.6386 26.1479 44.5702 26.6937 L 45.8554 27.4457 C 46.453 27.7944 46.7344 28.5054 46.537 29.1674 L 46.1132 30.5962 C 45.6426 32.1655 45.0176 33.6782 44.2518 35.0962 L 43.5428 36.4078 C 43.2148 37.0152 42.5176 37.3228 41.8418 37.1459 L 40.4022 36.769 C 40.162 36.7056 39.9414 36.6754 39.7284 36.6754 C 39.2694 36.6754 38.5312 36.8041 37.4178 37.9166 C 36.6816 38.6517 36.334 39.3756 36.7304 40.9 L 37.1074 42.3414 C 37.2832 43.0092 36.9764 43.7114 36.369 44.0396 L 35.0586 44.7476 C 33.6464 45.5142 32.1328 46.1402 30.5624 46.6097 L 29.1346 47.0366 C 28.9922 47.0786 28.8476 47.0992 28.705 47.0992 C 28.1836 47.0992 27.6854 46.8256 27.41 46.3579 L 26.6562 45.0718 C 25.9414 43.8492 24.6718 43.0278 23.5 43.0278 C 22.33 43.0278 21.0624 43.8492 20.3476 45.0707 L 19.5918 46.357 C 19.244 46.9526 18.535 47.2289 17.871 47.0345 L 16.4432 46.6097 C 14.8846 46.1459 13.373 45.52 11.9492 44.7495 L 10.6346 44.0434 C 10.0234 43.7163 9.7168 43.0132 9.8926 42.3431 L 10.2694 40.8989 C 10.6718 39.3784 10.3242 38.6547 9.5878 37.9166 C 8.707 37.0424 7.9218 36.8814 6.6014 37.2289 L 5.162 37.606 C 4.4824 37.7828 3.791 37.477 3.4628 36.8705 L 2.75 35.5582 C 1.9824 34.1342 1.3594 32.6236 0.8926 31.062 L 0.4628 29.6334 C 0.2656 28.9692 0.5448 28.2564 1.1426 27.9068 L 2.4316 27.1528 C 3.6522 26.4399 4.4726 25.1734 4.4726 24.0005 C 4.4726 22.7642 3.3612 21.853 2.4296 21.3062 L 1.1426 20.5511 C 0.5448 20.2015 0.2636 19.4888 0.4648 18.8256 L 0.8944 17.397 C 1.3574 15.8452 1.9804 14.3336 2.748 12.9078 L 3.4628 11.5904 C 3.791 10.9847 4.4824 10.6822 5.162 10.856 L 6.6014 11.233 C 6.8378 11.2953 7.0586 11.3256 7.2714 11.3256 C 7.7304 11.3256 8.4706 11.1968 9.5858 10.0826 C 10.3242 9.3452 10.6718 8.6205 10.2714 7.104 L 9.8926 5.6588 C 9.7168 4.9888 10.0234 4.2856 10.6328 3.9576 L 11.9512 3.2486 C 13.3632 2.4847 14.875 1.8589 16.4414 1.3902 L 17.869 0.9633 C 18.535 0.7672 19.2422 1.0474 19.5936 1.6422 L 20.3476 2.9282 C 21.0624 4.15 22.328 4.9702 23.5 4.9702 C 24.6718 4.9702 25.9414 4.15 26.6562 2.9282 L 27.41 1.6422 C 27.7616 1.0474 28.4746 0.7679 29.1346 0.9633 L 30.5624 1.3902 C 32.1366 1.8608 33.6504 2.4878 35.0604 3.2534 L 36.371 3.9624 C 36.9784 4.2916 37.2832 4.9936 37.1074 5.6616 L 36.7304 7.1019 C 36.334 8.6255 36.6816 9.3482 37.416 10.0826 C 38.5292 11.1968 39.2694 11.3247 39.7304 11.3247 C 39.9432 11.3247 40.164 11.2943 40.4042 11.232 L 41.8398 10.853 C 42.5018 10.6703 43.2128 10.981 43.5428 11.5904 L 44.2518 12.9037 C 45.0176 14.3218 45.6426 15.8336 46.1132 17.3989 L 46.537 18.8326 C 46.7344 19.4955 46.453 20.2066 45.8554 20.5541 ZM 43.2382 18.2563 C 42.828 16.8901 42.2812 15.5677 41.6112 14.3295 L 41.4628 14.0552 L 41.166 14.1334 C 39.0468 14.6879 37.1464 14.0582 35.2968 12.2036 C 33.6758 10.5864 33.207 8.7242 33.828 6.3442 L 33.9082 6.0406 L 33.6308 5.8911 C 32.4004 5.2231 31.08 4.6761 29.703 4.2651 L 29.4042 4.1754 L 29.246 4.4458 C 27.9902 6.5864 25.7344 7.9702 23.5 7.9702 C 21.2656 7.9702 19.0116 6.5864 17.7578 4.4448 L 17.5996 4.1754 L 17.3008 4.2651 C 15.9316 4.6744 14.6112 5.2211 13.3768 5.8892 L 13.0936 6.0406 L 13.1718 6.3403 C 13.7988 8.7114 13.334 10.5756 11.707 12.2046 C 9.8496 14.059 7.9472 14.6832 5.8418 14.1351 L 5.537 14.0562 L 5.3866 14.3344 C 4.7186 15.5756 4.1738 16.8969 3.7676 18.2574 L 3.6758 18.559 L 3.9472 18.7181 C 6.2538 20.0728 7.4726 21.8989 7.4726 24.0005 C 7.4726 26.2368 6.0878 28.4908 3.9452 29.7426 L 3.6758 29.9008 L 3.7676 30.2016 C 4.1758 31.5698 4.7206 32.8912 5.3886 34.1304 L 5.539 34.4058 L 5.8398 34.3266 C 8.2382 33.6968 10.078 34.1733 11.707 35.7933 C 13.3358 37.4254 13.7988 39.2886 13.1698 41.6616 L 13.0936 41.9594 L 13.371 42.1089 C 14.619 42.7838 15.9394 43.3296 17.2988 43.7347 L 17.5996 43.8248 L 17.7596 43.5532 C 19.0136 41.4125 21.2676 40.0278 23.5 40.0278 C 25.7344 40.0278 27.9882 41.4116 29.246 43.5541 L 29.4042 43.8248 L 29.703 43.7347 C 31.0762 43.3248 32.3984 42.7778 33.6308 42.1097 L 33.9082 41.9604 L 33.828 41.6568 C 33.209 39.2778 33.6758 37.4156 35.2968 35.7944 C 37.1504 33.941 39.0624 33.3159 41.162 33.8668 L 41.4628 33.9458 L 41.6112 33.6703 C 42.2812 32.4322 42.828 31.1089 43.2382 29.7388 L 43.3262 29.4427 L 43.0546 29.2827 C 40.748 27.9282 39.5292 26.1019 39.5292 24.0005 C 39.5292 21.898 40.748 20.0718 43.0508 18.7181 L 43.3262 18.5571 L 43.2382 18.2563 ZM 23.5 33.2642 C 18.3926 33.2642 14.2382 29.109 14.2382 24.0005 C 14.2382 18.8922 18.3926 14.7357 23.5 14.7357 C 28.6074 14.7357 32.7636 18.8922 32.7636 24.0005 C 32.7636 29.109 28.6074 33.2642 23.5 33.2642 ZM 23.5 17.7357 C 20.0468 17.7357 17.2382 20.5463 17.2382 24.0005 C 17.2382 27.4545 20.0468 30.2642 23.5 30.2642 C 26.953 30.2642 29.7636 27.4545 29.7636 24.0005 C 29.7636 20.5463 26.953 17.7357 23.5 17.7357 Z" fill="#FFFFFF"/>
	</g>
</svg>
