<?xml version="1.0" standalone="no"?>
<!DOCTYPE svg PUBLIC "-//W3C//DTD SVG 1.1//EN" "http://www.w3.org/Graphics/SVG/1.1/DTD/svg11.dtd">
<svg id="user" viewBox="0 0 27 26" fill="#FFFFFF" version="1.1"
	xmlns="http://www.w3.org/2000/svg" xmlns:xlink="http://www.w3.org/1999/xlink" xml:space="preserve"
	x="0px" y="0px" width="27px" height="26px">
	<g id="Layer%201">
		<path id="Shape%206" fill="#FFFFFF" d="M 26.1046 26 L 0.8954 26 C 0.4011 26 0 25.5977 0 25.1021 L 0 22.2708 C 0 21.7458 0 20.351 6.0592 18.1378 C 9.3086 16.9498 9.8333 16.1138 9.8333 14.5716 C 9.8333 14.3168 9.8087 14.2899 9.5802 14.0297 C 9.2269 13.6282 8.6965 13.0243 8.4061 11.5125 C 7.681 11.1343 7.2508 10.5836 7.1376 9.0706 C 7.1366 8.4048 7.3137 7.9109 7.5527 7.5705 C 7.47 7.0754 7.3452 6.2715 7.2811 5.5847 C 7.1924 4.6488 7.4852 3.1148 8.6055 1.879 C 9.382 1.022 10.8628 0 13.4999 0 C 16.135 0 17.6144 1.0202 18.3909 1.8755 C 19.5126 3.1101 19.8075 4.6458 19.7201 5.5853 C 19.6548 6.2699 19.5288 7.0689 19.4461 7.5641 C 19.6863 7.8979 19.8659 8.3756 19.8659 9.0035 C 19.7457 10.6315 19.291 11.1688 18.5949 11.5119 C 18.2965 13.0325 17.7707 13.6305 17.4209 14.0292 C 17.1924 14.2893 17.1679 14.3168 17.1679 14.5716 C 17.1679 16.1138 17.6926 16.9498 20.9408 18.1378 C 27 20.351 27 21.7458 27 22.2708 L 27 25.1021 C 27 25.5977 26.5989 26 26.1046 26 ZM 1.785 24.2041 L 25.2092 24.2041 L 25.2092 22.2708 C 25.1077 22.1252 23.9931 21.1642 20.3275 19.8248 C 17.1166 18.651 15.3771 17.4666 15.3771 14.5716 C 15.3771 13.6381 15.7653 13.1967 16.0766 12.8418 C 16.3576 12.5233 16.6468 12.1935 16.8438 11.1273 C 16.9988 10.2895 17.534 10.0312 17.7917 9.9067 C 17.885 9.8605 18.0202 9.6927 18.0773 8.9356 C 18.075 8.7597 18.0271 8.6655 18.0073 8.6334 C 17.6996 8.4399 17.5351 8.0751 17.6028 7.7097 C 17.6051 7.6969 17.8441 6.395 17.9363 5.4164 C 17.977 4.9867 17.8476 3.9438 17.0664 3.0844 C 16.29 2.2298 15.0903 1.7959 13.4999 1.7959 C 11.9085 1.7959 10.7077 2.2302 9.9312 3.0867 C 9.1512 3.9466 9.0229 4.9867 9.0649 5.4164 C 9.1547 6.3961 9.3925 7.6974 9.3949 7.7103 C 9.4625 8.0739 9.2993 8.4369 8.9949 8.631 C 8.974 8.665 8.9262 8.7707 8.9262 9.0035 C 8.9798 9.6927 9.1151 9.8605 9.1162 9.8622 C 9.4659 10.0312 10.0012 10.2895 10.1563 11.1273 C 10.3532 12.1935 10.6436 12.5227 10.9233 12.8413 C 11.2359 13.1961 11.6241 13.6381 11.6241 14.5716 C 11.6241 17.4666 9.8833 18.6516 6.6725 19.8248 C 3.0069 21.1642 1.8923 22.1252 1.7722 22.3825 L 1.785 24.2041 Z" />
	</g>
</svg>
