<?xml version="1.0" standalone="no"?>
<!DOCTYPE svg PUBLIC "-//W3C//DTD SVG 1.1//EN" "http://www.w3.org/Graphics/SVG/1.1/DTD/svg11.dtd">
<svg id="2.4.fw" viewBox="0 0 80 80" style="background-color:#ffffff00" version="1.1"
	xmlns="http://www.w3.org/2000/svg" xmlns:xlink="http://www.w3.org/1999/xlink" xml:space="preserve"
	x="0px" y="0px" width="80px" height="80px">
	<g id="Layer%201">
		<path id="Shape%206" d="M 24.5015 59 C 21.4582 59 18.9814 56.4499 18.9814 53.3153 C 18.9814 50.1816 21.4582 47.6314 24.5015 47.6314 C 27.545 47.6314 30.0203 50.1816 30.0203 53.3153 C 30.0203 56.4499 27.545 59 24.5015 59 ZM 24.5015 50.1222 C 22.8021 50.1222 21.4186 51.5549 21.4186 53.3153 C 21.4186 55.0764 22.8021 56.5091 24.5015 56.5091 C 26.2009 56.5091 27.583 55.0764 27.583 53.3153 C 27.583 51.5549 26.2009 50.1222 24.5015 50.1222 ZM 30.5852 48.2833 C 30.2599 48.2833 29.9473 48.1503 29.7188 47.9144 C 28.3255 46.4759 26.4739 45.6839 24.5031 45.6839 C 22.534 45.6839 20.6808 46.4759 19.2891 47.9137 C 18.8322 48.3871 18.0134 48.3871 17.5564 47.9137 L 14.5162 44.774 C 14.0466 44.2891 14.0466 43.5075 14.5162 43.0227 C 17.1819 40.2708 20.7268 38.7554 24.5001 38.7554 C 28.2732 38.7554 31.8212 40.27 34.4885 43.022 C 34.9582 43.5067 34.9582 44.2885 34.4885 44.774 L 31.4515 47.9137 C 31.2231 48.1503 30.9105 48.2833 30.5852 48.2833 L 30.5852 48.2833 ZM 17.1408 43.943 L 18.4767 45.3222 C 21.9041 42.5605 27.1006 42.5605 30.5313 45.3222 L 31.8657 43.9437 C 29.7886 42.1957 27.215 41.2462 24.5001 41.2462 C 21.7866 41.2462 19.2145 42.1957 17.1408 43.943 ZM 36.664 42.0067 C 36.3386 42.0067 36.0277 41.874 35.7976 41.638 C 32.7781 38.5227 28.7667 36.8071 24.5001 36.8071 C 20.2349 36.8071 16.2236 38.5227 13.2072 41.638 C 12.7502 42.1098 11.9346 42.1098 11.4745 41.638 L 8.4343 38.5001 C 7.9646 38.0143 7.9646 37.2327 8.4343 36.7477 C 12.7248 32.3167 18.4307 29.8769 24.5001 29.8769 C 30.5692 29.8769 36.2752 32.3167 40.5658 36.7477 C 41.0354 37.2327 41.0354 38.0134 40.5658 38.4991 L 37.5303 41.6371 C 37.3019 41.874 36.9893 42.0067 36.664 42.0067 L 36.664 42.0067 ZM 11.0397 37.6486 L 12.3693 39.0205 C 15.7268 35.9775 19.9905 34.3162 24.5001 34.3162 C 29.0111 34.3162 33.2746 35.9775 36.6354 39.0198 L 37.9602 37.6495 C 34.2474 34.2344 29.5125 32.3676 24.5001 32.3676 C 19.4875 32.3676 14.7526 34.2344 11.0397 37.6486 ZM 42.7428 35.7295 C 42.4174 35.7295 42.1065 35.5965 41.8764 35.3605 C 37.2336 30.5685 31.0627 27.9302 24.5001 27.9302 C 17.9373 27.9302 11.768 30.5685 7.1268 35.3605 C 6.6698 35.8325 5.8543 35.8325 5.3941 35.3605 L 2.3523 32.2226 C 1.8826 31.737 1.8826 30.9554 2.3523 30.4697 C 8.2693 24.3625 16.1347 21 24.5015 21 C 32.8684 21 40.734 24.3632 46.6477 30.4704 C 47.1174 30.9554 47.1174 31.737 46.6477 32.2219 L 43.6091 35.3597 C 43.3806 35.5965 43.068 35.7295 42.7428 35.7295 ZM 4.9514 31.3639 L 6.2795 32.7336 C 11.2682 28.0202 17.6913 25.4393 24.5001 25.4393 C 31.3087 25.4393 37.7318 28.0202 42.7237 32.7336 L 44.0502 31.3639 C 38.706 26.2769 31.8118 23.4909 24.5015 23.4909 C 17.1915 23.4909 10.2956 26.2769 4.9514 31.3639 Z" fill="#ffffff"/>
		<text id="WPS" x="46" y="59" width="34" fill="#ffffff" style="font-size: 22px; font-family: Arial; text-align: center; color: #ffffff; "><tspan><![CDATA[5.0]]></tspan></text>
	</g>
</svg>
