<?xml version="1.0" standalone="no"?>
<!DOCTYPE svg PUBLIC "-//W3C//DTD SVG 1.1//EN" "http://www.w3.org/Graphics/SVG/1.1/DTD/svg11.dtd">
<svg id="" viewBox="0 0 80 80" version="1.1"
	xmlns="http://www.w3.org/2000/svg" xmlns:xlink="http://www.w3.org/1999/xlink" xml:space="preserve"
	x="0px" y="0px" width="80px" height="80px">
	<g id="Layer%201">
		<path id="Shape%206" d="M 39.9699 60.0077 C 36.7258 60.0077 34.0856 57.3224 34.0856 54.0215 C 34.0856 50.7216 36.7258 48.0361 39.9699 48.0361 C 43.2141 48.0361 45.8526 50.7216 45.8526 54.0215 C 45.8526 57.3224 43.2141 60.0077 39.9699 60.0077 ZM 39.9699 50.6591 C 38.1584 50.6591 36.6836 52.1677 36.6836 54.0215 C 36.6836 55.876 38.1584 57.3847 39.9699 57.3847 C 41.7814 57.3847 43.2546 55.876 43.2546 54.0215 C 43.2546 52.1677 41.7814 50.6591 39.9699 50.6591 ZM 46.4548 48.7226 C 46.108 48.7226 45.7748 48.5826 45.5313 48.3341 C 44.0461 46.8193 42.0723 45.9853 39.9716 45.9853 C 37.8726 45.9853 35.8971 46.8193 34.4136 48.3334 C 33.9266 48.8319 33.0538 48.8319 32.5666 48.3334 L 29.3259 45.0272 C 28.8253 44.5166 28.8253 43.6935 29.3259 43.183 C 32.1674 40.2852 35.9461 38.6894 39.9683 38.6894 C 43.9903 38.6894 47.7723 40.2842 50.6156 43.1823 C 51.1163 43.6926 51.1163 44.5159 50.6156 45.0272 L 47.3783 48.3334 C 47.1348 48.5826 46.8016 48.7226 46.4548 48.7226 L 46.4548 48.7226 ZM 32.1236 44.1521 L 33.5476 45.6045 C 37.2011 42.6963 42.7404 42.6963 46.3973 45.6045 L 47.8198 44.1528 C 45.6056 42.3121 42.8623 41.3123 39.9683 41.3123 C 37.0759 41.3123 34.3341 42.3121 32.1236 44.1521 ZM 52.9345 42.1131 C 52.5878 42.1131 52.2563 41.9733 52.011 41.7248 C 48.7923 38.4443 44.5164 36.6377 39.9683 36.6377 C 35.4218 36.6377 31.1459 38.4443 27.9306 41.7248 C 27.4434 42.2216 26.5741 42.2216 26.0836 41.7248 L 22.8429 38.4205 C 22.3421 37.9089 22.3421 37.0859 22.8429 36.5752 C 27.4164 31.9092 33.4986 29.34 39.9683 29.34 C 46.4378 29.34 52.5201 31.9092 57.0938 36.5752 C 57.5943 37.0859 57.5943 37.908 57.0938 38.4195 L 53.858 41.7239 C 53.6145 41.9733 53.2813 42.1131 52.9345 42.1131 L 52.9345 42.1131 ZM 25.6201 37.5238 L 27.0374 38.9686 C 30.6164 35.7642 35.1613 34.0147 39.9683 34.0147 C 44.7769 34.0147 49.3216 35.7642 52.9041 38.9678 L 54.3163 37.5248 C 50.3586 33.9285 45.3113 31.9628 39.9683 31.9628 C 34.6251 31.9628 29.5779 33.9285 25.6201 37.5238 ZM 59.4143 35.5029 C 59.0675 35.5029 58.736 35.3629 58.4908 35.1144 C 53.5418 30.0682 46.9638 27.29 39.9683 27.29 C 32.9726 27.29 26.3964 30.0682 21.4491 35.1144 C 20.9619 35.6114 20.0926 35.6114 19.6021 35.1144 L 16.3596 31.8101 C 15.859 31.2988 15.859 30.4756 16.3596 29.9642 C 22.6669 23.5331 31.0511 19.9922 39.9699 19.9922 C 48.8886 19.9922 57.273 23.5339 63.5768 29.965 C 64.0775 30.4756 64.0775 31.2988 63.5768 31.8093 L 60.3378 35.1135 C 60.0942 35.3629 59.761 35.5029 59.4143 35.5029 ZM 19.1302 30.9058 L 20.5459 32.3481 C 25.8636 27.3848 32.7104 24.667 39.9683 24.667 C 47.2261 24.667 54.0728 27.3848 59.394 32.3481 L 60.808 30.9058 C 55.1113 25.549 47.7623 22.6152 39.9699 22.6152 C 32.1776 22.6152 24.8269 25.549 19.1302 30.9058 Z" fill="#ffffff"/>
	</g>
</svg>
